<svg width="26" height="18" viewBox="0 0 26 18" fill="none" xmlns="http://www.w3.org/2000/svg">
<path d="M13.2602 8.55179C13.7146 7.93349 14.051 7.29588 14.2694 6.63897C14.4879 5.98205 14.5971 5.21884 14.5971 4.34937C14.5971 3.4799 14.4879 2.71668 14.2694 2.05977C14.051 1.40286 13.7146 0.765253 13.2602 0.146946C14.5883 -0.181521 15.7548 0.0406748 16.7597 0.813538C17.7646 1.58638 18.267 2.76503 18.267 4.34937C18.267 5.93371 17.7646 7.11236 16.7597 7.8852C15.7548 8.65804 14.5883 8.88028 13.2602 8.55179ZM18.9223 18V15.2757C18.9223 14.2903 18.6952 13.3725 18.2408 12.5224C17.7864 11.6722 17 10.9573 15.8816 10.3777C18.9049 10.8027 20.9713 11.421 22.0811 12.2325C23.1908 13.044 23.7456 14.0584 23.7456 15.2757V18H18.9223ZM21.8058 9.62414V6.72591H19.1845V4.98698H21.8058V2.08876H23.3786V4.98698H26V6.72591H23.3786V9.62414H21.8058ZM9.09224 8.6967C7.93884 8.6967 6.99515 8.29095 6.26117 7.47945C5.52719 6.66795 5.1602 5.62459 5.1602 4.34937C5.1602 3.07415 5.52719 2.03079 6.26117 1.21929C6.99515 0.407787 7.93884 0.00203535 9.09224 0.00203535C10.2456 0.00203535 11.1893 0.407787 11.9233 1.21929C12.6573 2.03079 13.0243 3.07415 13.0243 4.34937C13.0243 5.62459 12.6573 6.66795 11.9233 7.47945C11.1893 8.29095 10.2456 8.6967 9.09224 8.6967ZM0.834961 18V15.2757C0.834961 14.5994 0.996611 13.986 1.31991 13.4353C1.64321 12.8846 2.07574 12.4741 2.61748 12.2036C3.87574 11.5852 4.99855 11.1409 5.98593 10.8704C6.97329 10.5999 8.00873 10.4646 9.09224 10.4646C10.1758 10.4646 11.2068 10.5999 12.1854 10.8704C13.1641 11.1409 14.2825 11.5852 15.5408 12.2036C16.0825 12.4741 16.5194 12.8846 16.8515 13.4353C17.1835 13.986 17.3495 14.5994 17.3495 15.2757V18H0.834961Z" fill="#ABABAB"/>
</svg>
