<svg width="19" height="19" viewBox="0 0 19 19" fill="none" xmlns="http://www.w3.org/2000/svg">
<path d="M8.25 7.33301H10.0833C11.3797 7.33301 12.0279 7.33301 12.4306 7.7357C12.8333 8.13848 12.8333 8.78666 12.8333 10.083V15.583C12.8333 14.2867 12.8333 13.6385 13.236 13.2357C13.6388 12.833 14.287 12.833 15.5833 12.833C16.8797 12.833 17.5279 12.833 17.9306 13.2357C18.3333 13.6385 18.3333 14.2867 18.3333 15.583V18.333H0C0 17.0367 1.09275e-07 16.3885 0.402728 15.9857C0.805457 15.583 1.45364 15.583 2.75 15.583C4.04636 15.583 4.69454 15.583 5.09727 15.9857C5.5 16.3885 5.5 17.0367 5.5 18.333V10.083C5.5 8.78666 5.5 8.13848 5.90273 7.7357C6.30546 7.33301 6.95364 7.33301 8.25 7.33301Z" fill="#ABABAB"/>
<path d="M8.38358 0.937301C8.73191 0.312437 8.90608 0 9.1665 0C9.42693 0 9.60109 0.312437 9.94943 0.937301L10.0395 1.09896C10.1384 1.27653 10.1879 1.36532 10.2651 1.42389C10.3423 1.48248 10.4384 1.50422 10.6306 1.54771L10.8056 1.58731C11.482 1.74036 11.8203 1.81688 11.9007 2.07563C11.9812 2.33437 11.7506 2.60399 11.2895 3.14323L11.1702 3.28274C11.0392 3.43597 10.9736 3.51258 10.9441 3.60737C10.9147 3.70216 10.9246 3.80438 10.9444 4.00883L10.9624 4.19496C11.0321 4.91441 11.067 5.27414 10.8564 5.43406C10.6456 5.59398 10.329 5.44817 9.69569 5.15657L9.53188 5.08113C9.35185 4.99826 9.26193 4.95683 9.1665 4.95683C9.07108 4.95683 8.98115 4.99826 8.80112 5.08113L8.63731 5.15657C8.00398 5.44817 7.68737 5.59398 7.47663 5.43406C7.26601 5.27414 7.30086 4.91441 7.37057 4.19496L7.38863 4.00883C7.40843 3.80438 7.41833 3.70216 7.3889 3.60737C7.35938 3.51258 7.29387 3.43597 7.16283 3.28274L7.04353 3.14323C6.58239 2.60399 6.35183 2.33437 6.4323 2.07563C6.51276 1.81688 6.85096 1.74036 7.52741 1.58731L7.7024 1.54771C7.89463 1.50422 7.99069 1.48248 8.06788 1.42389C8.14506 1.36532 8.19456 1.27653 8.29347 1.09896L8.38358 0.937301Z" fill="#ABABAB"/>
</svg>
